<?xml version="1.0" encoding="UTF-8"?>
<svg width="100pt" height="100pt" version="1.1" viewBox="0 0 100 100" xmlns="http://www.w3.org/2000/svg">
 <path d="m50 27.379c-11.836 0-21.461 10.109-21.461 22.539 0 1.7266 0.19141 3.4648 0.59375 5.25l0.5625 2.0469 0.003907-0.003906c0.011719 0.050781 0.027343 0.10156 0.042969 0.14844 0.29297 0.87109 0.64062 1.7383 0.99219 2.4805 0.91797 2.2266 2.2812 5.3984 3.5586 7.8867 0.87891 1.7109 1.5742 4.4688 1.9648 7.7656 0.14063 1.1797 0.1875 1.9883 0.19141 2.0664l0.035156 0.77734c0.050781 0.98437 0.86328 1.7578 1.8477 1.7578h23.324c0.98438 0 1.7969-0.77344 1.8477-1.7578l0.039063-0.77734c0.039062-0.65234 0.42969-6.4727 2.1562-9.8242 1.2773-2.4883 2.6367-5.668 3.5156-7.8047 0.39453-0.83594 0.74609-1.6992 1-2.4766 0.03125-0.078125 0.0625-0.16016 0.082031-0.24219v0.003906l0.58594-2.1367c0.38281-1.707 0.57422-3.4375 0.57422-5.1602 0.007813-12.426-9.6172-22.539-21.457-22.539zm17.309 26.809-0.53906 1.9609c-0.007812 0.015624-0.011719 0.03125-0.015625 0.039062-0.24219 0.73047-0.53516 1.4531-0.90625 2.2461-0.89062 2.1602-2.2109 5.2344-3.4258 7.6055-1.6992 3.293-2.3008 8.1367-2.4922 10.359l-19.859 0.003906c-0.03125-0.36719-0.078124-0.82031-0.13672-1.3398-0.3125-2.6367-0.97266-6.3438-2.3516-9.0234-1.2188-2.3711-2.5352-5.4414-3.4648-7.6914-0.3125-0.65234-0.58594-1.332-0.86328-2.1289l-0.53906-1.9453c-0.32031-1.4375-0.48438-2.8984-0.48438-4.3555 0-10.391 7.9688-18.844 17.766-18.844s17.77 8.4531 17.77 18.844c0.003906 1.4492-0.16016 2.918-0.45703 4.2695zm-7.1875 30.363h-20.238c-1.0195 0-1.8477-0.82422-1.8477-1.8477s0.82812-1.8477 1.8477-1.8477h20.238c1.0195 0 1.8477 0.82422 1.8477 1.8477 0 1.0195-0.82812 1.8477-1.8477 1.8477zm0 4.3945h-20.238c-1.0195 0-1.8477-0.82422-1.8477-1.8477 0-1.0234 0.82812-1.8477 1.8477-1.8477l20.238-0.003906c1.0195 0 1.8477 0.82422 1.8477 1.8477s-0.82812 1.8516-1.8477 1.8516zm-1.4609 4.3906h-17.32c-1.0195 0-1.8477-0.82422-1.8477-1.8477 0-1.0234 0.82812-1.8477 1.8477-1.8477h17.324c1.0195 0 1.8477 0.82422 1.8477 1.8477 0 1.0234-0.82812 1.8477-1.8516 1.8477zm-16.754-30.211c-0.60938 0-1.207-0.30469-1.5586-0.85547-9.4336-14.781-0.17969-23.527 1.7695-25.133 0.78906-0.64844 1.9531-0.53516 2.6016 0.25391s0.53516 1.9531-0.25391 2.6016c-1.5273 1.2578-8.7578 8.1367-1 20.289 0.55078 0.86328 0.29688 2.0039-0.5625 2.5547-0.3125 0.19531-0.65625 0.28906-0.99609 0.28906zm48.75-11.598h-10.57c-1.0195 0-1.8477-0.82812-1.8477-1.8477 0-1.0195 0.82812-1.8477 1.8477-1.8477h10.57c1.0195 0 1.8477 0.82812 1.8477 1.8477 0 1.0195-0.82812 1.8477-1.8477 1.8477zm-70.738 0h-10.57c-1.0195 0-1.8477-0.82812-1.8477-1.8477 0-1.0195 0.82812-1.8477 1.8477-1.8477h10.57c1.0195 0 1.8477 0.82812 1.8477 1.8477 0 1.0195-0.82812 1.8477-1.8477 1.8477zm30.082-30.598c-1.0195 0-1.8477-0.82813-1.8477-1.8477v-10.57c0-1.0195 0.82812-1.8477 1.8477-1.8477s1.8477 0.82813 1.8477 1.8477v10.57c0 1.0234-0.82812 1.8477-1.8477 1.8477zm21.453 10.145c-0.47266 0-0.94531-0.17969-1.3086-0.54297-0.72266-0.72266-0.72266-1.8906 0-2.6133l7.4766-7.4766c0.72266-0.72266 1.8906-0.72266 2.6133 0s0.72266 1.8906 0 2.6133l-7.4766 7.4766c-0.35937 0.36328-0.83203 0.54297-1.3047 0.54297zm-42.906-0.36328c-0.47266 0-0.94531-0.17969-1.3086-0.54297l-7.4766-7.4766c-0.72266-0.72266-0.72266-1.8906 0-2.6133 0.72266-0.72266 1.8906-0.72266 2.6133 0l7.4766 7.4766c0.72266 0.72266 0.72266 1.8906 0 2.6133-0.35937 0.36328-0.83203 0.54297-1.3047 0.54297zm-7.4766 51.098c-0.47266 0-0.94531-0.17969-1.3086-0.53906-0.72266-0.72266-0.72266-1.8906 0-2.6133l7.4766-7.4766c0.72266-0.72266 1.8906-0.72266 2.6133 0 0.72266 0.72266 0.72266 1.8906 0 2.6133l-7.4766 7.4766c-0.35938 0.35938-0.83203 0.53906-1.3047 0.53906zm57.859 0.36328c-0.47266 0-0.94531-0.18359-1.3086-0.54297l-7.4766-7.4766c-0.72266-0.72266-0.72266-1.8906 0-2.6133 0.72266-0.72266 1.8867-0.72266 2.6133 0l7.4766 7.4766c0.72266 0.72656 0.72266 1.8906 0 2.6133-0.35938 0.35938-0.83203 0.54297-1.3047 0.54297z" fill="#00449e"/>
</svg>
