<?xml version="1.0" encoding="UTF-8" standalone="no"?>
<svg width="300px" height="125px" viewBox="0 0 300 125" version="1.1" xmlns="http://www.w3.org/2000/svg" xmlns:xlink="http://www.w3.org/1999/xlink">
    <!-- Generator: Sketch 3.7.2 (28276) - http://www.bohemiancoding.com/sketch -->
    <title>jmx2-logo-for-control-panel-26APR2016</title>
    <desc>Created with Sketch.</desc>
    <defs></defs>
    <g id="Revised-logo" stroke="none" stroke-width="1" fill="none" fill-rule="evenodd">
        <g id="jmx2-logo-for-control-panel-26APR2016">
            <rect id="Rectangle-1" x="0" y="0" width="300" height="125"></rect>
            <g id="Group" transform="translate(30.000000, 20.000000)" stroke="#979797" fill="#FFFFFF">
                <path d="M143.321431,10.1890505 L148.804329,18.3820089 L159.410958,1.00924179 C159.410958,1.00924179 180.670802,1.02260001 185.661802,1.03060001 L163.111795,39.7613004 L181.513393,67.2583518 C202.053894,43.2542532 211.6693,32.6781477 211.6693,26.9136 C211.6693,23.0186 207.1013,19.5916 201.8683,19.5916 C194.5243,19.5916 190.8793,22.6166 186.1413,26.7326 L181.7083,19.9026 L193.6293,0.6886 C196.6093,0.6916 198.5873,0.8756 202.3233,0.8756 C223.3763,0.8756 237.1273,11.1736 237.1273,27.4806 C237.1273,38.5536 229.9983,44.0306 214.5063,61.0306 L236.4573,61.0306 L236.4573,83.0306 L188.802405,83.0306 L162.295131,83.0306 L149.432219,63.2566188 L137.9193,83.0306 L109.3343,83.0306 L134.97549,41.032485 L129.797632,33.0726335 L101.237,81.4 L82.564,31.838 L82.564003,83 L57.5639992,83 L57.564,8.691 L52.564,17.911 L52.564,51.672 C52.564,72.481 41.545,84 22.655,84 C14.745,84 6.328,81.346 0,76.478 C0,76.478 9.954,56.827 9.977,56.8 C12.521,58.534 15.688,60.265 19.553,60.433 C19.756,60.441 19.828,60.496 20.033,60.496 C25.052,60.496 27.668,57.564 28.064,52.477 C28.09,52.138 28.064,12.8 28.064,12.8 L34.765,1 L93.015,1 L104.252,25.97 L117.86,1 L148.752,1 L143.321431,10.1890505 Z" id="Combined-Shape"></path>
            </g>
        </g>
    </g>
</svg>
