<?xml version="1.0" encoding="UTF-8" standalone="no"?>
<svg enable-background="new 0 0 242.1 83" viewBox="0 0 242.1 83" xmlns="http://www.w3.org/2000/svg"><path d="m218.6 59c15.5-16.5 22.6-21.7 22.6-32.8 0-16.3-14.7-26.2-35.8-26.2h-8.7l-10.9 19.3v.2l4.4 6.7c4.7-4.1 8.4-7.1 15.7-7.1 5.2 0 9.8 3.4 9.8 7.3 0 6.1-5 11-28 37.9l-19.1-27.3.1-.1 21.4-36.9h-25.3l-10.9 17.8-8.2-12.1 3.1-5.8h-30.9l-13.6 25-11.3-24.9h-59.2l-4.7 6.1v46.8c-.5 5.1-3.8 8.1-8.8 8.1h-.6c-3.5-.3-6.9-1.5-9.7-3.7h-.1l-9.9 19c6.3 4.8 14.7 6.7 22.6 6.7 18.9 0 31.4-10 31.4-30.8v-31.7l5-9.2v69.7h25v-48.6l18 48.8 30.3-52.6 7.1 10.8-24 41.6h26.6l11.9-20.8 13.8 20.8h74.3v-22z"/></svg>
